<?xml version="1.0" encoding="UTF-8" standalone="no"?>
<svg
   xmlns:dc="http://purl.org/dc/elements/1.1/"
   xmlns:cc="http://creativecommons.org/ns#"
   xmlns:rdf="http://www.w3.org/1999/02/22-rdf-syntax-ns#"
   xmlns:svg="http://www.w3.org/2000/svg"
   xmlns="http://www.w3.org/2000/svg"
   viewBox="0 0 1866.6667 1306.6667"
   height="1306.6667"
   width="1866.6667"
   xml:space="preserve"
   id="svg2"
   version="1.1"><metadata
     id="metadata8"><rdf:RDF><cc:Work
         rdf:about=""><dc:format>image/svg+xml</dc:format><dc:type
           rdf:resource="http://purl.org/dc/dcmitype/StillImage" /></cc:Work></rdf:RDF></metadata><defs
     id="defs6" /><g
     transform="matrix(1.3333333,0,0,-1.3333333,0,1306.6667)"
     id="g10"><g
       transform="scale(0.1)"
       id="g12"><path
         id="path14"
         style="fill:#cfeff9;fill-opacity:1;fill-rule:nonzero;stroke:none"
         d="M 14000,0 H 0 V 9800 H 14000 V 0" /><path
         id="path16"
         style="fill:#ace4f6;fill-opacity:1;fill-rule:nonzero;stroke:none"
         d="M 14000,0 H 0 V 1609.58 H 14000 V 0" /><path
         id="path18"
         style="fill:#83c7d8;fill-opacity:1;fill-rule:nonzero;stroke:none"
         d="m 10000.8,658.961 c 0,-320.332 -1219.88,-580.0001 -2724.63,-580.0001 -1504.74,0 -2724.58,259.6681 -2724.58,580.0001 0,320.32 1219.84,579.999 2724.58,579.999 1504.75,0 2724.63,-259.679 2724.63,-579.999" /><path
         id="path20"
         style="fill:#1b1e23;fill-opacity:1;fill-rule:nonzero;stroke:none"
         d="m 8255.82,1193.99 c -12.91,-6.67 -23.45,-18.11 -33.18,-29.91 -84.13,-101.99 -125.47,-248.428 -109.41,-387.588 98.5,-38.64 202.21,-59.742 306.29,-62.301 7.64,26.438 15.27,52.868 22.91,79.309 22.46,-14.77 20.2,-54.309 38.06,-75.809 7.04,-8.48 16.66,-13.41 26.07,-17.961 192.87,-93.3 405.52,-114.519 614.12,-134.628 40.49,-3.911 81.16,-7.821 121.69,-4.692 22.52,1.731 46.75,6.68 62.2,25.539 19.67,24.02 17.82,63.723 3.02,91.949 -14.81,28.231 -39.68,47.313 -64.4,64.102 -119.25,80.949 -252.65,129.57 -379.93,192.422 -127.28,62.848 -253.03,144.238 -335.36,272.048 -6.99,10.85 -14.11,22.47 -24.76,28.23 -12.12,6.56 -26.32,4.21 -39.55,1.72 -58.71,-11.06 -117.43,-22.12 -176.14,-33.18 -10.77,-2.03 -21.68,-4.11 -31.63,-9.25" /><path
         id="path22"
         style="fill:#1b1e23;fill-opacity:1;fill-rule:nonzero;stroke:none"
         d="m 6330.76,1081.44 c 12.91,-6.68 23.45,-18.12 33.18,-29.91 84.13,-101.999 125.46,-248.44 109.4,-387.6 -98.49,-38.641 -202.21,-59.731 -306.28,-62.289 -7.64,26.429 -15.28,52.871 -22.91,79.3 -22.46,-14.769 -20.2,-54.3 -38.06,-75.8 -7.05,-8.481 -16.66,-13.411 -26.07,-17.961 -192.88,-93.301 -405.52,-114.528 -614.13,-134.641 -40.48,-3.91 -81.15,-7.809 -121.69,-4.687 -22.51,1.738 -46.74,6.687 -62.19,25.55 -19.67,24.008 -17.82,63.719 -3.02,91.938 14.81,28.23 39.67,47.32 64.4,64.101 119.25,80.95 252.65,129.571 379.93,192.418 127.28,62.86 253.03,144.25 335.35,272.051 7,10.86 14.12,22.48 24.77,28.24 12.12,6.56 26.31,4.2 39.54,1.71 58.72,-11.06 117.44,-22.12 176.15,-33.18 10.77,-2.03 21.68,-4.1 31.63,-9.24" /><path
         id="path24"
         style="fill:#262a34;fill-opacity:1;fill-rule:nonzero;stroke:none"
         d="M 6174.36,3358.68 6038,1081.15 l 344.96,-8.24 c 0,0 246.28,1254.17 884.58,1822.28 0,0 451.2,-241.85 959.19,-1738.43 l 287.61,61.18 -236.68,2230.65 -2103.3,-89.91" /><path
         id="path26"
         style="fill:#1b1e23;fill-opacity:1;fill-rule:nonzero;stroke:none"
         d="m 8315.79,3089.22 -38.13,359.37 -2103.3,-89.91 -23.74,-396.55 c 718.48,78.15 1445.11,142.54 2165.17,127.09" /><path
         id="path28"
         style="fill:#262a34;fill-opacity:1;fill-rule:nonzero;stroke:none"
         d="m 8924.38,3562.62 c 0,0 -7.34,7.04 -21.11,20.23 -13.49,13.45 -33.61,32.89 -57.86,58.8 -48.74,51.42 -116.44,127.48 -186.52,225.63 -70.81,97.5 -144.45,216.47 -211.26,347.75 -67.25,131.19 -126.47,274.56 -178.3,418.27 -51.95,143.8 -95.12,288.06 -132.81,422.41 -37.49,134.4 -69.66,258.66 -96.49,366.13 -26.79,107.31 -47.9,197.02 -62.43,259.88 -14.31,62.9 -22.49,98.85 -22.49,98.85 l 431.44,126.03 c 0,0 6.27,-35.73 17.26,-98.25 11.17,-62.5 27.58,-151.73 48.67,-258.61 21.1,-106.68 46.95,-231.82 76.78,-363.89 29.98,-131.94 64.11,-271.02 105.01,-406.67 40.97,-135.56 88.28,-268.05 141.23,-387.63 53.1,-119.44 111.61,-225.92 168.02,-312.9 55.74,-87.53 109.82,-154.91 149.16,-200.87 19.47,-23.17 35.79,-40.45 46.64,-52.51 11.13,-11.78 17.07,-18.07 17.07,-18.07 l -232.01,-244.58" /><path
         id="path30"
         style="fill:#262a34;fill-opacity:1;fill-rule:nonzero;stroke:none"
         d="m 8996.4,3513.82 c 0,0 -16.33,14 -32.07,28.58 -15.99,14.34 -31.44,29.19 -31.44,29.19 l 218.06,229.87 c 0,0 13.08,-12.6 26.61,-24.7 13.31,-12.36 27.09,-24.14 27.09,-24.14 l -208.25,-238.8" /><path
         id="path32"
         style="fill:#eba46a;fill-opacity:1;fill-rule:nonzero;stroke:none"
         d="m 9359.24,3479.37 c 0.24,3.57 0,6.91 -0.44,10.14 2.64,2.27 5.16,4.72 7.37,7.6 35.2,45.03 87.57,105.88 44.52,157.96 -14.96,18.26 -42.7,31.89 -72.95,40.62 -30.38,8.41 -63.18,12.3 -88.11,7.82 -13.2,-2.28 -26.02,-5.92 -38.16,-10.83 0,0 -8.71,6.93 -17.09,14.26 -8.42,7.29 -16.85,14.58 -16.85,14.58 l -154.02,-176.6 c 0,0 14.64,-12.56 29.27,-25.13 14.91,-12.25 29.83,-24.5 29.83,-24.5 9.18,-61.22 49.08,-113.79 117.43,-135.6 42.47,-13.68 82.2,-2.88 110.42,20.6 28.44,23.6 46.15,60.17 48.78,99.08" /><path
         id="path34"
         style="fill:#486fab;fill-opacity:1;fill-rule:nonzero;stroke:none"
         d="m 10211.4,4053.23 h -712.39 c -99.41,0 -180,-80.59 -180,-180.01 v -1163.4 c 0,-99.42 80.59,-180.01 180,-180.01 h 712.39 c 99.4,0 180,80.59 180,180.01 v 1163.4 c 0,99.42 -80.6,180.01 -180,180.01" /><path
         id="path36"
         style="fill:#ffffff;fill-opacity:1;fill-rule:nonzero;stroke:none"
         d="m 10050.9,2971.31 c 0,-15.65 12.7,-28.34 28.4,-28.34 h 112.6 c 15.6,0 28.3,12.69 28.3,28.34 v 114.4 h -169.3 v -114.4" /><path
         id="path38"
         style="fill:#ffffff;fill-opacity:1;fill-rule:nonzero;stroke:none"
         d="m 10135.6,3181.52 c -36.2,0 -65.5,29.32 -65.5,65.5 0,36.17 29.3,65.5 65.5,65.5 36.1,0 65.5,-29.33 65.5,-65.5 0,-36.18 -29.4,-65.5 -65.5,-65.5 z m -117.4,32.75 c -18.1,0 -32.78,14.66 -32.78,32.75 0,18.09 14.68,32.75 32.78,32.75 18.1,0 32.7,-14.66 32.7,-32.75 0,-18.09 -14.6,-32.75 -32.7,-32.75 z m -326.01,0 c -18.09,0 -32.75,14.66 -32.75,32.75 0,18.09 14.66,32.75 32.75,32.75 18.09,0 32.75,-14.66 32.75,-32.75 0,-18.09 -14.66,-32.75 -32.75,-32.75 z m -117.4,-32.75 c -36.17,0 -65.5,29.32 -65.5,65.5 0,36.17 29.33,65.5 65.5,65.5 36.18,0 65.51,-29.33 65.51,-65.5 0,-36.18 -29.33,-65.5 -65.51,-65.5 z m 631.61,201.39 h -702.39 c -37.73,0 -68.31,-28.39 -68.31,-63.4 v -144.98 c 0,-35.02 30.58,-63.4 68.31,-63.4 h 351.17 351.22 c 37.7,0 68.3,28.38 68.3,63.4 v 144.98 c 0,35.01 -30.6,63.4 -68.3,63.4" /><path
         id="path40"
         style="fill:#ffffff;fill-opacity:1;fill-rule:nonzero;stroke:none"
         d="m 10289.9,3468.94 h -61.4 c -6.8,0 -12.4,-5.51 -12.4,-12.32 v -27.16 c 0,-6.81 5.6,-12.33 12.4,-12.33 h 61.4 c 6.8,0 12.3,5.52 12.3,12.33 v 27.16 c 0,6.81 -5.5,12.32 -12.3,12.32" /><path
         id="path42"
         style="fill:#ffffff;fill-opacity:1;fill-rule:nonzero;stroke:none"
         d="m 9490.15,2971.31 c 0,-15.65 12.69,-28.34 28.34,-28.34 h 112.61 c 15.65,0 28.34,12.69 28.34,28.34 v 114.4 h -169.29 v -114.4" /><path
         id="path44"
         style="fill:#ffffff;fill-opacity:1;fill-rule:nonzero;stroke:none"
         d="m 9637.56,3561.65 c 7.95,16.97 26.1,28.52 45.83,28.52 h 171.79 171.82 c 19.7,0 37.9,-11.55 45.8,-28.52 l 66.1,-158.42 h 50.8 l -74,177.38 c -16,34.32 -50.8,56.49 -88.7,56.49 h -171.82 -171.79 c -37.88,0 -72.71,-22.17 -88.74,-56.49 l -74.01,-177.38 h 50.84 l 66.08,158.42" /><path
         id="path46"
         style="fill:#ffffff;fill-opacity:1;fill-rule:nonzero;stroke:none"
         d="m 9494.22,3429.46 v 27.16 c 0,6.81 -5.52,12.32 -12.33,12.32 h -61.38 c -6.81,0 -12.33,-5.51 -12.33,-12.32 v -27.16 c 0,-6.81 5.52,-12.33 12.33,-12.33 h 61.38 c 6.81,0 12.33,5.52 12.33,12.33" /><path
         id="path48"
         style="fill:#eba46a;fill-opacity:1;fill-rule:nonzero;stroke:none"
         d="m 9428.34,3500.78 c -7.28,24.67 -21.01,38.84 -41.07,52.38 -30.36,20.02 -61.37,39.36 -92.16,58.93 -23.09,15.24 -56.55,-1.27 -62.31,-26.86 -1,-1.64 -1.9,-3.34 -2.61,-5.16 -14.43,-36.74 8.69,-68.48 42.74,-91.24 34.24,-22.52 78.52,-35.78 105.59,-39.57 28.09,-4.28 59.2,19.9 49.82,51.52" /><path
         id="path50"
         style="fill:#262a34;fill-opacity:1;fill-rule:nonzero;stroke:none"
         d="m 10131.4,5019.22 c 0,0 -9.6,-0.34 -27.6,-0.97 -17.9,-0.55 -44.3,-1.95 -77.9,-1.7 -33.5,0.18 -74.27,-0.89 -120.98,0.34 -23.36,0.68 -48.21,1.41 -74.41,2.18 -26.21,0.47 -53.73,1.98 -82.42,3.91 -229.51,12.4 -535.14,52.22 -831.31,133.68 -148.39,39.94 -293.47,88.52 -428.61,141.09 -136.9,53.96 -267.2,118.69 -375.01,193.75 -53.86,37.62 -101.88,77.29 -142.67,116.1 -40.37,39.77 -73.91,77.54 -99.12,111.58 -25.84,33.34 -43.18,62.54 -55.38,81.96 -6.26,9.58 -9.99,17.78 -12.95,22.95 -2.81,5.28 -4.26,8.01 -4.26,8.01 0,0 93.99,62.12 190.73,119.06 96.47,57.45 195.51,109.65 195.51,109.65 0,0 2.4,-5.34 6.89,-15.36 3.81,-10.34 11.77,-24.64 21.98,-43.33 11.56,-18.14 25.64,-40.65 47.18,-65.08 9.91,-12.6 22.91,-25.07 35.82,-38.81 14.27,-13.05 28.81,-27.25 46.22,-41.05 67.72,-56.33 164.2,-114.89 280.04,-168.36 28.67,-13.54 59.53,-26.43 90.57,-39.64 15.52,-6.62 31.14,-13.28 46.83,-19.97 15.77,-6.53 31.86,-12.44 47.89,-18.75 64.02,-25.63 130.28,-48.61 196.9,-70.96 266.98,-88.29 546.65,-140.59 758.48,-162.3 105.91,-11.72 194.82,-16.28 257.08,-18.77 31.2,-1.81 55.7,-1.7 72.4,-1.99 16.7,-0.22 25.6,-0.34 25.6,-0.34 l 12.5,-336.88" /><path
         id="path52"
         style="fill:#262a34;fill-opacity:1;fill-rule:nonzero;stroke:none"
         d="m 10211.9,5035.17 c 0,0 -20.2,-1.69 -40.5,-2.15 -20.2,-0.73 -40.5,-1.45 -40.5,-1.45 l -11.7,316.63 c 0,0 18.6,0.65 37.3,1.31 18.7,0.39 37.3,1.99 37.3,1.99 l 18.1,-316.33" /><path
         id="path54"
         style="fill:#eba46a;fill-opacity:1;fill-rule:nonzero;stroke:none"
         d="m 10494.4,5250.95 c -2.1,2.92 -4.4,5.35 -6.7,7.58 0.6,3.42 1,6.92 0.9,10.55 -1.4,56.9 2.5,138.18 -67.4,149.62 -24.4,4.01 -56.3,-3.05 -86,-17.25 -14.8,-7.01 -29.2,-15.62 -41.7,-25.06 -12.7,-9.02 -23.5,-18.87 -31.3,-28.92 -8.3,-10.73 -15.3,-22.18 -20.8,-34.08 l -45.2,-3.08 13.3,-233.95 73.4,4.98 c 11.6,-9.74 24.1,-17.89 37.2,-24.25 13.1,-5.98 26.8,-10.15 41.1,-12.33 28.5,-4.37 59,-0.76 89.8,12.25 77.2,34.93 88.2,130.4 43.4,193.94" /><path
         id="path56"
         style="fill:#ef2c7d;fill-opacity:1;fill-rule:nonzero;stroke:none"
         d="m 10392.1,5379.63 c 0,-415.98 337.2,-753.21 753.2,-753.21 416,0 753.2,337.23 753.2,753.21 0,415.99 -337.2,753.22 -753.2,753.22 -416,0 -753.2,-337.23 -753.2,-753.22" /><path
         id="path58"
         style="fill:#ffffff;fill-opacity:1;fill-rule:nonzero;stroke:none"
         d="m 11672.4,5638.92 v 36.3 c 0,32.22 -26.1,58.34 -58.3,58.34 h -937.5 c -32.2,0 -58.3,-26.12 -58.3,-58.34 v -36.3 h 1054.1" /><path
         id="path60"
         style="fill:#ffffff;fill-opacity:1;fill-rule:nonzero;stroke:none"
         d="m 11493.6,5071.34 c -23.9,0 -45.5,9.28 -61.7,24.33 -17.9,16.58 -29.1,40.18 -29.1,66.46 0,26.27 11.2,49.88 29.1,66.45 16.2,15.05 37.8,24.33 61.7,24.33 50.1,0 90.8,-40.64 90.8,-90.78 0,-50.14 -40.7,-90.79 -90.8,-90.79 z m -139.2,0 c -50.1,0 -90.7,40.65 -90.7,90.79 0,50.14 40.6,90.78 90.7,90.78 23.9,0 45.6,-9.28 61.8,-24.33 -17.9,-16.57 -29.1,-40.18 -29.1,-66.45 0,-26.28 11.2,-49.88 29.1,-66.46 -16.2,-15.05 -37.9,-24.33 -61.8,-24.33 z m -736.1,442.41 v -429.7 c 0,-32.22 26.1,-58.34 58.3,-58.34 h 937.5 c 32.2,0 58.3,26.12 58.3,58.34 v 429.7 h -1054.1" /><path
         id="path62"
         style="fill:#eba46a;fill-opacity:1;fill-rule:nonzero;stroke:none"
         d="m 10535,5310.45 c -21.1,15.09 -41.2,17.88 -65.6,15.35 -18.4,-1.79 -36.7,-4.69 -55.1,-7.16 -18.3,-2.33 -36.7,-5.03 -55,-7.82 -27.8,-4.26 -41.6,-38.95 -28.7,-61.78 0.4,-1.88 0.9,-3.75 1.6,-5.58 13.9,-36.81 51.3,-44.86 91.1,-40.57 39.7,4.82 81.3,23.33 104.6,36.44 24.1,13.7 34.1,51.89 7.1,71.12" /><path
         id="path64"
         style="fill:#262a34;fill-opacity:1;fill-rule:nonzero;stroke:none"
         d="m 9989.87,6907.13 c 0,0 -4.75,-7.65 -13.68,-21.99 -9.12,-14.2 -21.59,-35.68 -39.2,-61.78 -18.34,-25.58 -40.61,-56.65 -66.15,-92.28 -24.66,-36.35 -56.63,-74 -90.81,-115.66 -136.78,-166.07 -343.62,-368.63 -583.75,-526.12 -60.75,-38.07 -119.97,-78.64 -182.83,-111.09 -30.98,-16.95 -61.72,-33.77 -92.08,-50.38 -31.37,-14.74 -62.35,-29.31 -92.83,-43.63 -60.27,-30.11 -121.81,-52.1 -179.26,-74.91 -14.41,-5.6 -28.61,-11.13 -42.61,-16.57 -14.33,-4.58 -28.44,-9.08 -42.32,-13.51 -27.79,-8.8 -54.63,-17.29 -80.4,-25.45 -12.89,-4.05 -25.51,-8.02 -37.85,-11.89 -12.42,-3.61 -24.83,-6.27 -36.78,-9.32 -23.98,-5.85 -46.73,-11.4 -68.1,-16.61 -21.39,-5.17 -41.41,-10 -59.92,-14.47 -18.57,-4.19 -36,-6.52 -51.55,-9.41 -62.43,-10.64 -98.1,-16.71 -98.1,-16.71 0,0 -23.48,109.73 -45.5,219.68 -22.17,109.92 -42.9,220.04 -42.9,220.04 0,0 29.84,3.38 82.05,9.29 52.63,3.99 126.73,18.3 216.06,36.36 22.11,5.65 45.14,11.54 68.97,17.63 11.96,3.03 24.12,6.11 36.47,9.24 6.19,1.56 12.42,3.14 18.69,4.73 6.15,2.03 12.33,4.07 18.56,6.13 25,8.19 50.68,16.6 76.93,25.21 13.17,4.28 26.49,8.61 39.94,12.99 13.13,5.24 26.38,10.54 39.75,15.89 26.81,10.75 54.06,21.68 81.65,32.74 14.03,5.14 27.39,11.88 40.96,18.41 13.59,6.51 27.25,13.06 40.97,19.63 13.75,6.58 27.56,13.17 41.42,19.79 13.92,6.52 27.88,13.1 41.14,21.02 26.99,15.11 54.09,30.28 81.19,45.45 27.68,14.44 53.43,31.87 79.5,48.71 26.11,16.92 52.12,33.77 77.92,50.49 24.74,18.31 49.28,36.47 73.52,54.41 12.18,8.98 24.29,17.91 36.3,26.77 12.12,8.78 22.89,18.93 34.29,28.22 44.74,38.06 89.64,73.57 127.53,112.13 19.58,18.72 38.63,36.93 57.06,54.55 9.52,8.57 17.62,18.1 25.99,27.1 8.32,9.06 16.48,17.96 24.47,26.67 66.05,68.22 112.68,132.16 148.25,174.93 16.86,22.01 28.6,40.35 37.36,52.38 8.53,12.18 13.08,18.68 13.08,18.68 l 286.6,-177.49" /><path
         id="path66"
         style="fill:#262a34;fill-opacity:1;fill-rule:nonzero;stroke:none"
         d="m 10019.4,6978.26 -40.03,-64.62 -269.38,166.82 35.2,56.53 274.21,-158.73" /><path
         id="path68"
         style="fill:#eba46a;fill-opacity:1;fill-rule:nonzero;stroke:none"
         d="m 9976.67,7312.45 c -3.52,-0.11 -6.73,-0.64 -9.79,-1.34 -2.65,2.2 -5.47,4.28 -8.63,6.03 -49.56,27.77 -117.96,70.94 -161.14,24.75 -15.37,-15.96 -21.55,-44.48 -25.49,-73.14 -3.05,-29.01 0.24,-60.16 9.79,-82.67 5.12,-12 11.44,-23.43 18.84,-34.02 0,0 -4.76,-8.98 -9.52,-17.96 -2.38,-4.49 -4.76,-8.98 -6.54,-12.34 -1.98,-3.26 -3.29,-5.43 -3.29,-5.43 l 202.81,-117.4 c 0,0 2.45,3.52 5.36,9.26 3.02,5.68 7.06,13.24 11.13,20.8 8,15.13 16.1,30.27 16.1,30.27 28,7.91 52.4,22.02 71.1,42 9.2,10.03 17.4,21.31 23.3,34.34 5.4,13.23 9.1,27.85 10.8,43.73 8.9,79.89 -68.2,135.83 -144.83,133.12" /><path
         id="path70"
         style="fill:#50c4bc;fill-opacity:1;fill-rule:nonzero;stroke:none"
         d="m 11001.8,7948.56 c 0,-415.99 -337.2,-753.21 -753.2,-753.21 -416.01,0 -753.24,337.22 -753.24,753.21 0,415.99 337.23,753.22 753.24,753.22 416,0 753.2,-337.23 753.2,-753.22" /><path
         id="path72"
         style="fill:#ffffff;fill-opacity:1;fill-rule:nonzero;stroke:none"
         d="m 10248.6,7448.64 c -275.68,0 -499.94,224.27 -499.94,499.92 0,275.66 224.26,499.92 499.94,499.92 275.6,0 499.9,-224.26 499.9,-499.92 0,-275.65 -224.3,-499.92 -499.9,-499.92 z m 0,1072.13 c -315.54,0 -572.23,-256.69 -572.23,-572.21 0,-315.51 256.69,-572.21 572.23,-572.21 315.5,0 572.2,256.7 572.2,572.21 0,315.52 -256.7,572.21 -572.2,572.21" /><path
         id="path74"
         style="fill:#ffffff;fill-opacity:1;fill-rule:nonzero;stroke:none"
         d="m 10470.6,7984.71 h -185.9 v 282.21 c 0,19.97 -16.2,36.15 -36.1,36.15 -20,0 -36.2,-16.18 -36.2,-36.15 v -318.36 c 0,-19.96 16.2,-36.14 36.2,-36.14 h 222 c 20,0 36.1,16.18 36.1,36.14 0,19.97 -16.1,36.15 -36.1,36.15" /><path
         id="path76"
         style="fill:#ffffff;fill-opacity:1;fill-rule:nonzero;stroke:none"
         d="m 10248.6,8353.35 c 17.9,0 32.4,14.53 32.4,32.46 0,17.92 -14.5,32.45 -32.4,32.45 -17.9,0 -32.5,-14.53 -32.5,-32.45 0,-17.93 14.6,-32.46 32.5,-32.46" /><path
         id="path78"
         style="fill:#ffffff;fill-opacity:1;fill-rule:nonzero;stroke:none"
         d="m 10534.8,8280.69 c -12.7,-12.68 -12.7,-33.22 0,-45.9 12.7,-12.67 33.2,-12.67 45.9,0 12.7,12.68 12.7,33.22 0,45.9 -12.7,12.67 -33.2,12.67 -45.9,0" /><path
         id="path80"
         style="fill:#ffffff;fill-opacity:1;fill-rule:nonzero;stroke:none"
         d="m 10685.8,7981.01 c -17.9,0 -32.4,-14.53 -32.4,-32.45 0,-17.92 14.5,-32.45 32.4,-32.45 17.9,0 32.5,14.53 32.5,32.45 0,17.92 -14.6,32.45 -32.5,32.45" /><path
         id="path82"
         style="fill:#ffffff;fill-opacity:1;fill-rule:nonzero;stroke:none"
         d="m 10534.8,7662.33 c -12.7,-12.67 -12.7,-33.22 0,-45.89 12.7,-12.67 33.2,-12.67 45.9,0 12.7,12.67 12.7,33.22 0,45.89 -12.7,12.67 -33.2,12.67 -45.9,0" /><path
         id="path84"
         style="fill:#ffffff;fill-opacity:1;fill-rule:nonzero;stroke:none"
         d="m 10248.6,7543.77 c -17.9,0 -32.5,-14.53 -32.5,-32.45 0,-17.92 14.6,-32.45 32.5,-32.45 17.9,0 32.4,14.53 32.4,32.45 0,17.92 -14.5,32.45 -32.4,32.45" /><path
         id="path86"
         style="fill:#ffffff;fill-opacity:1;fill-rule:nonzero;stroke:none"
         d="m 9916.46,7662.33 c -12.68,-12.67 -12.68,-33.22 0,-45.89 12.67,-12.67 33.21,-12.67 45.89,0 12.67,12.67 12.67,33.22 0,45.89 -12.68,12.67 -33.22,12.67 -45.89,0" /><path
         id="path88"
         style="fill:#ffffff;fill-opacity:1;fill-rule:nonzero;stroke:none"
         d="m 9811.34,7981.01 c -17.93,0 -32.46,-14.53 -32.46,-32.45 0,-17.92 14.53,-32.45 32.46,-32.45 17.92,0 32.45,14.53 32.45,32.45 0,17.92 -14.53,32.45 -32.45,32.45" /><path
         id="path90"
         style="fill:#ffffff;fill-opacity:1;fill-rule:nonzero;stroke:none"
         d="m 9916.46,8280.69 c -12.68,-12.68 -12.68,-33.22 0,-45.9 12.67,-12.67 33.21,-12.67 45.89,0 12.67,12.68 12.67,33.22 0,45.9 -12.68,12.67 -33.22,12.67 -45.89,0" /><path
         id="path92"
         style="fill:#eba46a;fill-opacity:1;fill-rule:nonzero;stroke:none"
         d="m 9945.21,7373.47 c -23.31,-8.68 -35.42,-22.51 -45.08,-42.37 -7.28,-14.95 -13.95,-30.19 -20.29,-45.6 -6.68,-15.24 -11.54,-31.36 -19.04,-46.19 -10.58,-22.95 11.76,-51.53 37.72,-53.86 1.77,-0.72 3.6,-1.35 5.49,-1.79 38.06,-8.79 65.52,14.94 79.36,49.05 14.74,33.68 19.73,75.16 19.73,99.83 0,25.65 -28.12,52.11 -57.89,40.93" /><path
         id="path94"
         style="fill:#262a34;fill-opacity:1;fill-rule:nonzero;stroke:none"
         d="m 5396.02,3546.1 c 0,0 7.35,7.04 21.12,20.23 13.48,13.45 33.61,32.89 57.85,58.8 48.75,51.42 116.45,127.48 186.53,225.63 70.81,97.5 144.45,216.47 211.25,347.75 67.26,131.19 126.47,274.56 178.3,418.27 51.95,143.8 95.12,288.05 132.81,422.4 37.49,134.41 69.66,258.67 96.49,366.14 26.79,107.3 47.9,197.02 62.43,259.88 14.31,62.9 22.49,98.85 22.49,98.85 l -431.43,126.03 c 0,0 -6.28,-35.73 -17.26,-98.25 -11.18,-62.5 -27.59,-151.73 -48.68,-258.61 -21.1,-106.69 -46.94,-231.82 -76.77,-363.89 -29.98,-131.94 -64.12,-271.02 -105.01,-406.67 -40.97,-135.56 -88.29,-268.05 -141.24,-387.63 -53.09,-119.44 -111.6,-225.92 -168.01,-312.91 -55.74,-87.52 -109.82,-154.9 -149.17,-200.86 -19.47,-23.18 -35.79,-40.45 -46.64,-52.51 -11.13,-11.78 -17.06,-18.07 -17.06,-18.07 l 232,-244.58" /><path
         id="path96"
         style="fill:#262a34;fill-opacity:1;fill-rule:nonzero;stroke:none"
         d="m 5324.01,3497.3 c 0,0 16.32,14 32.06,28.58 16,14.34 31.45,29.19 31.45,29.19 l -218.06,229.87 c 0,0 -13.09,-12.6 -26.62,-24.7 -13.3,-12.36 -27.09,-24.15 -27.09,-24.15 l 208.26,-238.79" /><path
         id="path98"
         style="fill:#eba46a;fill-opacity:1;fill-rule:nonzero;stroke:none"
         d="m 4961.17,3462.85 c -0.24,3.57 0,6.91 0.43,10.14 -2.64,2.27 -5.16,4.72 -7.37,7.6 -35.2,45.03 -87.57,105.87 -44.52,157.96 14.96,18.26 42.7,31.89 72.95,40.62 30.39,8.41 63.18,12.3 88.12,7.82 13.19,-2.28 26.02,-5.92 38.15,-10.83 0,0 8.72,6.93 17.1,14.26 8.42,7.29 16.84,14.58 16.84,14.58 l 154.02,-176.6 c 0,0 -14.63,-12.57 -29.26,-25.13 -14.92,-12.25 -29.83,-24.5 -29.83,-24.5 -9.19,-61.22 -49.09,-113.79 -117.43,-135.6 -42.48,-13.69 -82.2,-2.88 -110.43,20.6 -28.44,23.6 -46.15,60.17 -48.77,99.08" /><path
         id="path100"
         style="fill:#39b185;fill-opacity:1;fill-rule:nonzero;stroke:none"
         d="m 5164.02,3085.71 c 0,-415.99 -337.23,-753.22 -753.22,-753.22 -415.99,0 -753.21,337.23 -753.21,753.22 0,415.98 337.22,753.21 753.21,753.21 415.99,0 753.22,-337.23 753.22,-753.21" /><path
         id="path102"
         style="fill:#ffffff;fill-opacity:1;fill-rule:nonzero;stroke:none"
         d="m 4714.83,3267.71 h -608.06 c -45.45,0 -82.3,-36.85 -82.3,-82.31 v -402.28 c 0,-45.46 36.85,-82.31 82.3,-82.31 h 608.06 c 45.46,0 82.3,36.85 82.3,82.31 v 402.28 c 0,45.46 -36.84,82.31 -82.3,82.31" /><path
         id="path104"
         style="fill:#ffffff;fill-opacity:1;fill-rule:nonzero;stroke:none"
         d="m 4410.8,3472.97 c 94.54,0 172.59,-71.69 182.82,-163.55 h 99.93 c -10.55,146.83 -133.28,263.09 -282.75,263.09 -149.46,0 -272.2,-116.26 -282.74,-263.09 h 99.93 c 10.23,91.86 88.27,163.55 182.81,163.55" /><path
         id="path106"
         style="fill:#eba46a;fill-opacity:1;fill-rule:nonzero;stroke:none"
         d="m 4892.07,3484.26 c 7.27,24.67 21.01,38.84 41.07,52.38 30.36,20.02 61.36,39.36 92.15,58.93 23.1,15.24 56.56,-1.27 62.31,-26.86 1,-1.64 1.91,-3.34 2.61,-5.16 14.43,-36.74 -8.69,-68.48 -42.73,-91.24 -34.25,-22.52 -78.53,-35.78 -105.6,-39.57 -28.09,-4.28 -59.19,19.9 -49.81,51.52" /><path
         id="path108"
         style="fill:#262a34;fill-opacity:1;fill-rule:nonzero;stroke:none"
         d="m 4189.03,5002.7 c 0,0 9.58,-0.34 27.55,-0.98 17.97,-0.54 44.32,-1.95 77.88,-1.69 33.55,0.18 74.31,-0.89 121.03,0.34 23.35,0.68 48.2,1.41 74.4,2.17 26.22,0.48 53.73,1.99 82.42,3.92 229.51,12.4 535.14,52.22 831.31,133.68 148.39,39.94 293.48,88.52 428.62,141.09 136.89,53.96 267.2,118.69 375,193.75 53.86,37.62 101.88,77.29 142.68,116.1 40.37,39.77 73.91,77.54 99.11,111.58 25.85,33.34 43.18,62.54 55.38,81.96 6.27,9.58 10,17.78 12.95,22.95 2.82,5.28 4.27,8 4.27,8 0,0 -94,62.13 -190.73,119.07 -96.48,57.45 -195.52,109.65 -195.52,109.65 0,0 -2.39,-5.35 -6.89,-15.36 -3.8,-10.34 -11.77,-24.65 -21.98,-43.33 -11.56,-18.14 -25.64,-40.65 -47.18,-65.08 -9.91,-12.6 -22.9,-25.07 -35.82,-38.81 -14.27,-13.05 -28.81,-27.25 -46.22,-41.05 -67.72,-56.33 -164.2,-114.89 -280.04,-168.36 -28.67,-13.54 -59.52,-26.44 -90.57,-39.64 -15.52,-6.62 -31.13,-13.28 -46.83,-19.97 -15.76,-6.53 -31.86,-12.44 -47.89,-18.75 -64.02,-25.63 -130.28,-48.61 -196.9,-70.96 -266.97,-88.29 -546.65,-140.59 -758.48,-162.3 -105.9,-11.72 -194.81,-16.28 -257.09,-18.77 -31.16,-1.81 -55.64,-1.7 -72.34,-1.99 -16.71,-0.22 -25.63,-0.34 -25.63,-0.34 l -12.49,-336.88" /><path
         id="path110"
         style="fill:#262a34;fill-opacity:1;fill-rule:nonzero;stroke:none"
         d="m 4108.5,5018.65 c 0,0 20.21,-1.69 40.48,-2.15 20.25,-0.73 40.5,-1.45 40.5,-1.45 l 11.75,316.63 c 0,0 -18.67,0.65 -37.34,1.31 -18.69,0.39 -37.31,1.99 -37.31,1.99 l -18.08,-316.33" /><path
         id="path112"
         style="fill:#eba46a;fill-opacity:1;fill-rule:nonzero;stroke:none"
         d="m 3826.04,5234.43 c 2.04,2.92 4.32,5.35 6.68,7.58 -0.61,3.42 -1.01,6.92 -0.9,10.55 1.36,56.89 -2.49,138.18 67.43,149.62 24.38,4.01 56.22,-3.05 85.91,-17.25 14.86,-7.01 29.2,-15.62 41.79,-25.06 12.62,-9.02 23.49,-18.88 31.27,-28.93 8.31,-10.73 15.29,-22.17 20.81,-34.07 l 45.2,-3.08 -13.38,-233.95 -73.3,4.98 c -11.65,-9.74 -24.11,-17.89 -37.24,-24.25 -13.1,-5.98 -26.86,-10.15 -41.11,-12.33 -28.49,-4.37 -58.97,-0.76 -89.84,12.25 -77.16,34.93 -88.14,130.4 -43.32,193.94" /><path
         id="path114"
         style="fill:#3eb6b5;fill-opacity:1;fill-rule:nonzero;stroke:none"
         d="M 3018.66,6071.81 H 3731 c 99.42,0 180.01,-80.59 180.01,-180 V 4728.4 c 0,-99.41 -80.59,-180 -180.01,-180 h -712.34 c -99.41,0 -180,80.59 -180,180 v 1163.41 c 0,99.41 80.59,180 180,180" /><path
         id="path116"
         style="fill:#f4f4f4;fill-opacity:1;fill-rule:nonzero;stroke:none"
         d="m 3578.06,5433.33 c 0,0 71.82,56.48 170.01,72.82 0,0 15.24,-128.2 -53.88,-198.59 0,0 -86.46,49.18 -116.13,125.77 z m -33.29,-224.97 c -25.07,0 -45.39,20.32 -45.39,45.39 0,25.07 20.32,45.39 45.39,45.39 25.07,0 45.39,-20.32 45.39,-45.39 0,-25.07 -20.32,-45.39 -45.39,-45.39 z m -169.94,-305.74 c -63.43,0 -114.85,40.23 -114.85,103.66 0,63.43 51.42,126.04 114.85,126.04 63.44,0 114.86,-62.61 114.86,-126.04 0,-63.43 -51.42,-103.66 -114.86,-103.66 z m -169.93,305.74 c -25.07,0 -45.4,20.32 -45.4,45.39 0,25.07 20.33,45.39 45.4,45.39 25.07,0 45.39,-20.32 45.39,-45.39 0,-25.07 -20.32,-45.39 -45.39,-45.39 z m -149.42,99.2 c -69.13,70.39 -53.89,198.59 -53.89,198.59 98.2,-16.34 170.02,-72.82 170.02,-72.82 -29.67,-76.59 -116.13,-125.77 -116.13,-125.77 z m 721.69,275.29 c -147.76,-24.59 -255.84,-109.58 -255.84,-109.58 0.03,-0.06 0.05,-0.12 0.08,-0.18 -45.44,21.04 -94.84,33.06 -146.58,33.06 -51.73,0 -101.14,-12.02 -146.57,-33.06 0.02,0.06 0.05,0.12 0.08,0.18 0,0 -108.08,84.99 -255.84,109.58 0,0 -20.74,-175.14 67.32,-283.28 -42.51,-70.58 -67.32,-152.56 -67.32,-234.96 0,-222.2 180.13,-363.14 402.33,-363.14 222.21,0 402.34,140.94 402.34,363.14 0,82.4 -24.81,164.38 -67.32,234.96 88.06,108.14 67.32,283.28 67.32,283.28" /><path
         id="path118"
         style="fill:#f4f4f4;fill-opacity:1;fill-rule:nonzero;stroke:none"
         d="m 3429.4,5055.16 c -13.58,0 -24.59,-17.36 -24.59,-38.78 0,-21.41 11.01,-38.77 24.59,-38.77 13.58,0 24.59,17.36 24.59,38.77 0,21.42 -11.01,38.78 -24.59,38.78" /><path
         id="path120"
         style="fill:#f4f4f4;fill-opacity:1;fill-rule:nonzero;stroke:none"
         d="m 3320.27,5055.16 c -13.58,0 -24.59,-17.36 -24.59,-38.78 0,-21.41 11.01,-38.77 24.59,-38.77 13.58,0 24.59,17.36 24.59,38.77 0,21.42 -11.01,38.78 -24.59,38.78" /><path
         id="path122"
         style="fill:#f4f4f4;fill-opacity:1;fill-rule:nonzero;stroke:none"
         d="m 3330.19,5757.76 c -5.63,4.73 -8.44,10.43 -8.44,17.08 0,7.3 3,13.12 9.02,17.47 5.3,3.85 11.88,6.48 19.48,8.15 v -52.47 c -9.52,3.33 -16.27,6.58 -20.06,9.77 z m 69.23,-82.38 c 1.34,-0.41 2.56,-0.8 3.54,-1.14 9.72,-3.45 16.54,-7.52 20.44,-12.19 3.91,-4.67 5.86,-10.34 5.86,-16.99 0,-10.37 -4.64,-19.42 -13.92,-27.17 -4.3,-3.59 -9.68,-6.25 -15.92,-8.18 z m -66.64,-56.05 c -6.33,5.43 -11.35,12.76 -15.03,22.02 -4.49,11.28 -16.4,17.79 -28.48,16.61 -18.15,-1.76 -30.48,-20.26 -23.9,-37.27 5.91,-15.29 14.6,-27.87 26.04,-37.74 14.69,-12.67 34.34,-20.41 58.84,-23.32 v -7.06 c 0,-13.58 11.01,-24.59 24.58,-24.59 13.58,0 24.59,11.01 24.59,24.59 v 7.37 c 13.22,1.61 25.08,4.38 35.22,8.61 16.38,6.85 29.05,17.31 38.01,31.39 8.96,14.08 13.44,29.18 13.44,45.31 0,17.79 -3.74,32.73 -11.23,44.83 -7.49,12.09 -17.85,21.63 -31.11,28.6 -10.35,5.46 -25.17,10.77 -44.33,15.95 v 62.13 c 2.23,-1.11 4.32,-2.33 6.13,-3.77 4.54,-3.6 8.18,-8.51 10.93,-14.72 4.49,-10.16 15.32,-16.02 26.42,-15.53 l 1.24,0.06 c 20.46,0.89 33.6,22.86 23.94,40.92 -4.53,8.47 -10.59,15.99 -18.18,22.58 -12.51,10.84 -29.4,17.81 -50.48,21.06 v 46.79 c 0,13.58 -11.01,24.59 -24.59,24.59 -13.57,0 -24.58,-11.01 -24.58,-24.59 v -45.78 c -13.25,-1.42 -25.17,-4.22 -35.51,-8.63 -15.3,-6.53 -27.01,-16.03 -35.13,-28.52 -8.14,-12.47 -12.2,-25.88 -12.2,-40.22 0,-22.27 8.64,-41.15 25.92,-56.63 11.28,-10.11 30.32,-18.74 56.92,-25.93 v -78.7 c -6.66,2.17 -12.5,5.35 -17.47,9.59" /><path
         id="path124"
         style="fill:#eba46a;fill-opacity:1;fill-rule:nonzero;stroke:none"
         d="m 3785.38,5293.93 c 21.13,15.09 41.18,17.88 65.62,15.35 18.4,-1.79 36.71,-4.69 55.07,-7.17 18.38,-2.32 36.72,-5.02 55,-7.81 27.88,-4.26 41.62,-38.95 28.7,-61.78 -0.36,-1.89 -0.82,-3.75 -1.52,-5.58 -13.91,-36.81 -51.35,-44.86 -91.13,-40.58 -39.73,4.83 -81.27,23.34 -104.58,36.44 -24.17,13.71 -34.18,51.9 -7.16,71.13" /><path
         id="path126"
         style="fill:#262a34;fill-opacity:1;fill-rule:nonzero;stroke:none"
         d="m 4330.53,6890.61 c 0,0 4.76,-7.65 13.68,-21.99 9.12,-14.2 21.6,-35.68 39.2,-61.78 18.34,-25.58 40.61,-56.65 66.15,-92.28 24.66,-36.35 56.64,-74.01 90.82,-115.66 136.78,-166.07 343.61,-368.63 583.75,-526.12 60.74,-38.07 119.97,-78.64 182.82,-111.09 30.99,-16.95 61.72,-33.77 92.09,-50.38 31.36,-14.74 62.34,-29.31 92.82,-43.63 60.28,-30.12 121.81,-52.1 179.26,-74.91 14.41,-5.6 28.62,-11.13 42.61,-16.57 14.34,-4.58 28.45,-9.08 42.33,-13.51 27.78,-8.8 54.62,-17.29 80.39,-25.45 12.89,-4.05 25.51,-8.02 37.85,-11.9 12.43,-3.6 24.83,-6.26 36.78,-9.31 23.98,-5.85 46.73,-11.4 68.11,-16.61 21.39,-5.17 41.4,-10 59.91,-14.47 18.58,-4.19 36.01,-6.52 51.56,-9.41 62.42,-10.64 98.09,-16.71 98.09,-16.71 0,0 23.48,109.73 45.51,219.67 22.17,109.93 42.89,220.05 42.89,220.05 0,0 -29.83,3.38 -82.04,9.29 -52.63,3.99 -126.73,18.3 -216.07,36.36 -22.11,5.65 -45.13,11.54 -68.97,17.63 -11.96,3.03 -24.12,6.11 -36.47,9.24 -6.18,1.56 -12.41,3.14 -18.69,4.73 -6.14,2.03 -12.33,4.07 -18.56,6.12 -25,8.2 -50.67,16.61 -76.92,25.21 -13.18,4.29 -26.5,8.62 -39.95,13 -13.13,5.24 -26.38,10.54 -39.74,15.89 -26.81,10.75 -54.07,21.68 -81.66,32.74 -14.02,5.14 -27.39,11.88 -40.95,18.41 -13.6,6.51 -27.26,13.06 -40.97,19.63 -13.76,6.57 -27.57,13.17 -41.42,19.79 -13.93,6.52 -27.89,13.1 -41.14,21.02 -27,15.11 -54.1,30.28 -81.2,45.45 -27.67,14.44 -53.42,31.86 -79.5,48.71 -26.11,16.92 -52.11,33.77 -77.91,50.49 -24.74,18.31 -49.28,36.47 -73.53,54.41 -12.18,8.98 -24.28,17.91 -36.3,26.77 -12.11,8.78 -22.88,18.93 -34.28,28.22 -44.74,38.06 -89.65,73.57 -127.53,112.13 -19.59,18.72 -38.64,36.93 -57.06,54.55 -9.53,8.57 -17.63,18.09 -26,27.1 -8.31,9.06 -16.47,17.96 -24.47,26.67 -66.05,68.22 -112.67,132.16 -148.25,174.93 -16.86,22.01 -28.6,40.35 -37.35,52.38 -8.53,12.18 -13.08,18.68 -13.08,18.68 l -286.61,-177.49" /><path
         id="path128"
         style="fill:#262a34;fill-opacity:1;fill-rule:nonzero;stroke:none"
         d="m 4300.99,6961.74 40.05,-64.62 269.37,166.82 -35.2,56.53 -274.22,-158.73" /><path
         id="path130"
         style="fill:#eba46a;fill-opacity:1;fill-rule:nonzero;stroke:none"
         d="m 4343.74,7295.93 c 3.51,-0.11 6.72,-0.64 9.79,-1.34 2.64,2.2 5.46,4.28 8.63,6.03 49.55,27.77 117.96,70.94 161.13,24.75 15.38,-15.96 21.56,-44.48 25.5,-73.14 3.05,-29.01 -0.24,-60.16 -9.8,-82.67 -5.11,-12 -11.44,-23.43 -18.84,-34.02 0,0 4.76,-8.98 9.52,-17.96 2.38,-4.49 4.76,-8.98 6.54,-12.34 1.98,-3.26 3.3,-5.44 3.3,-5.44 L 4336.7,6982.41 c 0,0 -2.45,3.52 -5.36,9.26 -3.03,5.67 -7.06,13.24 -11.1,20.8 -8.06,15.13 -16.11,30.27 -16.11,30.27 -28.02,7.91 -52.39,22.02 -71.09,42 -9.26,10.03 -17.48,21.31 -23.31,34.34 -5.44,13.23 -9.15,27.84 -10.87,43.73 -8.82,79.88 68.23,135.83 144.88,133.12" /><path
         id="path132"
         style="fill:#ed3a44;fill-opacity:1;fill-rule:nonzero;stroke:none"
         d="m 3476.97,7948.56 c 0,-415.99 337.22,-753.21 753.21,-753.21 415.99,0 753.21,337.22 753.21,753.21 0,415.99 -337.22,753.22 -753.21,753.22 -415.99,0 -753.21,-337.23 -753.21,-753.22" /><path
         id="path134"
         style="fill:#ffffff;fill-opacity:1;fill-rule:nonzero;stroke:none"
         d="m 4806.4,7788.54 c -77.19,-11.43 -138.38,-72.62 -149.8,-149.81 h -852.84 c -11.42,77.19 -72.61,138.38 -149.8,149.81 v 320.05 c 77.19,11.43 138.38,72.62 149.8,149.81 h 852.84 c 11.42,-77.19 72.61,-138.38 149.8,-149.81 z m 26.16,370.45 c -69.23,0 -125.56,56.33 -125.56,125.57 0,14.44 -11.71,26.16 -26.16,26.16 h -901.32 c -14.45,0 -26.16,-11.72 -26.16,-26.16 0,-69.24 -56.32,-125.57 -125.56,-125.57 -14.44,0 -26.16,-11.71 -26.16,-26.16 v -368.54 c 0,-14.44 11.72,-26.16 26.16,-26.16 69.24,0 125.56,-56.32 125.56,-125.56 0,-14.45 11.71,-26.16 26.16,-26.16 h 901.32 c 14.45,0 26.16,11.71 26.16,26.16 0,69.24 56.33,125.56 125.56,125.56 14.44,0 26.16,11.72 26.16,26.16 v 368.54 c 0,14.45 -11.72,26.16 -26.16,26.16" /><path
         id="path136"
         style="fill:#ffffff;fill-opacity:1;fill-rule:nonzero;stroke:none"
         d="m 4396.56,7975.96 -251.55,171.87 c -22.02,15.05 -51.9,-0.72 -51.9,-27.39 v -343.75 c 0,-26.67 29.88,-42.44 51.9,-27.4 l 251.55,171.88 c 19.28,13.17 19.28,41.61 0,54.79" /><path
         id="path138"
         style="fill:#eba46a;fill-opacity:1;fill-rule:nonzero;stroke:none"
         d="m 4375.19,7356.95 c 23.31,-8.68 35.42,-22.51 45.09,-42.37 7.27,-14.95 13.95,-30.19 20.28,-45.6 6.68,-15.24 11.55,-31.36 19.04,-46.19 10.58,-22.95 -11.75,-51.53 -37.71,-53.86 -1.78,-0.72 -3.6,-1.35 -5.5,-1.79 -38.06,-8.79 -65.52,14.94 -79.36,49.04 -14.73,33.69 -19.74,75.17 -19.71,99.84 -0.06,25.65 28.1,52.11 57.87,40.93" /><path
         id="path140"
         style="fill:#262a34;fill-opacity:1;fill-rule:nonzero;stroke:none"
         d="m 7617.94,6219.21 c 133.45,7.24 269.76,12.29 398.24,-24.53 128.48,-36.82 283.88,-99.82 307.74,-231.32 32.22,-177.53 40.83,-351.75 22.81,-531.27 -73.46,-731.59 -31.8,-1466.33 100.37,-2189.63 -799.13,42.53 -1618.81,-9.42 -2413.38,-104.75 40.22,792.91 27.24,1588.52 -38.84,2379.7 -10.14,121.52 2.98,250.24 21.1,370.82 9.87,65.74 25.79,137.64 79.24,177.16 32.88,24.3 74.79,32.07 115.17,38.43 259.48,40.84 523.72,51.38 785.62,31.32 229.04,-17.53 392.6,97.14 621.93,84.07" /><path
         id="path142"
         style="fill:#1b1e23;fill-opacity:1;fill-rule:nonzero;stroke:none"
         d="m 7745.46,4781.57 47.8,816.01 -127.45,37.17 146.92,53.1 213.59,503.83 c -3.38,0.99 -6.8,2.05 -10.14,3 -128.48,36.82 -264.79,31.77 -398.24,24.53 -229.33,13.07 -392.89,-101.6 -621.93,-84.07 -172.85,13.24 -346.7,12.86 -519.54,-0.47 l 195.14,-502.87 191.17,-59 -94.4,-77.89 180.54,-775.3 390.6,-409.48 v -1064 c 45.8,1.89 91.59,3.52 137.38,4.94 l -74.83,1077.35 343.39,453.15" /><path
         id="path144"
         style="fill:#333c48;fill-opacity:1;fill-rule:nonzero;stroke:none"
         d="m 6948.92,5594.04 -145.14,-95.59 169.93,-750.52 401.43,-390.14 338.46,436.17 43.61,785.48 -156.89,46.46 191.17,88.5 203.21,485.99 c -122.14,30.5 -250.72,25.66 -376.76,18.82 -229.33,13.07 -392.89,-101.6 -621.93,-84.07 -163.84,12.55 -328.6,13.12 -492.53,1.79 l 193.32,-489.79 252.12,-53.1" /><path
         id="path146"
         style="fill:#ffffff;fill-opacity:1;fill-rule:nonzero;stroke:none"
         d="m 7375.14,4357.79 138.95,1267.2 243.12,599.26 c -46.47,-0.33 -93.04,-2.53 -139.27,-5.04 -229.33,13.07 -392.89,-101.6 -621.93,-84.07 -99.53,7.63 -199.4,10.77 -299.21,9.57 l 360.86,-504.96 317.48,-1281.96" /><path
         id="path148"
         style="fill:#ca1b35;fill-opacity:1;fill-rule:nonzero;stroke:none"
         d="m 7354.77,5873.34 h -0.03 c 16.13,78.15 16.62,174.76 16.62,174.76 l -249.41,-13.32 c 0,0 36.12,-100.8 83.26,-176.69 l -21.71,-714.44 194.62,-785.86 90.72,827.41 -114.07,688.14" /><path
         id="path150"
         style="fill:#4f2c19;fill-opacity:1;fill-rule:nonzero;stroke:none"
         d="m 8094.25,7191.52 c 131.89,107.95 169.87,292.76 177.92,463.01 7.29,154.23 -3.47,311.81 -57.88,456.31 -54.4,144.49 -156.38,275.42 -296,341.34 -6.9,129.97 -91.09,252.86 -191.97,335.1 -100.88,82.24 -226.73,129.09 -354.41,154.35 -205.8,40.7 -422.4,27.73 -620.81,-40.43 -121.8,-41.84 -239.39,-106.51 -320.56,-206.5 -81.17,-99.99 -120.64,-239.53 -79.46,-361.55 -73.89,30.93 -170.07,19.5 -233.55,-29.37 -85.49,-65.81 -113.49,-182.29 -118.46,-290.06 -10.42,-226.21 57.82,-455.3 190.34,-638.93 132.52,-183.63 328.43,-320.58 546.4,-381.97 100.26,-28.23 204.2,-40.82 307.91,-50.48 98.9,-9.21 198.92,-15.82 297.27,-1.95 110.16,15.54 214.95,56.27 318.59,96.7 141.3,55.11 317.3,58.36 434.67,154.43" /><path
         id="path152"
         style="fill:#eba46a;fill-opacity:1;fill-rule:nonzero;stroke:none"
         d="m 8166.37,7773.85 c -40.46,27.81 -87.16,39.63 -129.44,20.56 -124.13,452.99 -473.77,695.96 -886.02,695.96 -411.25,0 -772.38,-244.79 -892.54,-694.5 -33.94,13.68 -73.4,12.02 -107.74,-11.58 -122.78,-84.4 -111.51,-253.11 -89.51,-395.3 16,-103.3 76.83,-259.43 180.16,-269.57 74.93,-520.24 325.14,-1044.21 909.63,-1044.21 566.38,0 841.67,526.85 914.37,1048.71 92.88,15.59 146.04,135.14 170.49,239.98 29.43,126.22 45.46,331 -69.4,409.95" /><path
         id="path154"
         style="fill:#4f2c19;fill-opacity:1;fill-rule:nonzero;stroke:none"
         d="m 6265.33,7803.02 c 15.21,-56.51 41.72,-109.94 77.49,-156.25 116.73,115.41 182.22,282.76 191,446.68 20.89,-73.62 89.97,-115.18 157.78,-150.63 67.82,-35.45 144.22,-50.71 219.92,-61.93 146.21,-21.67 295.83,-29.73 441.53,-4.85 145.69,24.88 287.88,84.37 396.15,184.99 -21.56,54.17 -57.67,112.2 -107.17,143.03 33.32,2.25 56.28,-8.23 77.96,-33.62 21.69,-25.39 34.91,-56.74 47.8,-87.54 18.5,-44.2 37,-88.41 55.51,-132.61 29.37,-70.18 129.17,-270.65 160.52,-304.07 32.99,44.7 57.54,92.81 53.11,148.19 62.32,105.39 43.65,251.06 -14.73,358.68 -58.38,107.62 -167.88,183.75 -287.31,210.75 -4.83,30.19 -26.66,54.92 -53.39,69.78 -341.84,190.1 -787.91,175.46 -1116.55,-36.63 -98.42,-63.52 -187.71,-144.64 -246.01,-246.23 -58.31,-101.59 -84.07,-234.64 -53.61,-347.74" /><path
         id="path156"
         style="fill:#4f2c19;fill-opacity:1;fill-rule:nonzero;stroke:none"
         d="m 7667.72,7412.74 c 0,-71.77 -58.18,-129.95 -129.95,-129.95 -71.77,0 -129.95,58.18 -129.95,129.95 0,71.77 58.18,129.95 129.95,129.95 71.77,0 129.95,-58.18 129.95,-129.95" /><path
         id="path158"
         style="fill:#4f2c19;fill-opacity:1;fill-rule:nonzero;stroke:none"
         d="m 6634.1,7412.74 c 0,-71.77 58.18,-129.95 129.95,-129.95 71.77,0 129.95,58.18 129.95,129.95 0,71.77 -58.18,129.95 -129.95,129.95 -71.77,0 -129.95,-58.18 -129.95,-129.95" /><path
         id="path160"
         style="fill:#ffffff;fill-opacity:1;fill-rule:nonzero;stroke:none"
         d="m 7667.72,7465.9 c 0,-34.21 -27.73,-61.95 -61.95,-61.95 -34.21,0 -61.95,27.74 -61.95,61.95 0,34.22 27.74,61.96 61.95,61.96 34.22,0 61.95,-27.74 61.95,-61.96" /><path
         id="path162"
         style="fill:#ffffff;fill-opacity:1;fill-rule:nonzero;stroke:none"
         d="m 6894,7465.9 c 0,-34.21 -27.74,-61.95 -61.95,-61.95 -34.22,0 -61.96,27.74 -61.96,61.95 0,34.22 27.74,61.96 61.96,61.96 34.21,0 61.95,-27.74 61.95,-61.96" /><path
         id="path164"
         style="fill:#4f2c19;fill-opacity:1;fill-rule:nonzero;stroke:none"
         d="m 7749.9,7646.22 c 0,0 -255.79,105.09 -450.5,0 l -34.93,93.16 c 0,0 237.01,53.11 403.25,17.7 l 82.18,-110.86" /><path
         id="path166"
         style="fill:#4f2c19;fill-opacity:1;fill-rule:nonzero;stroke:none"
         d="m 6551.92,7646.22 c 0,0 255.79,105.09 450.5,0 l 34.93,93.16 c 0,0 -237.01,53.11 -403.25,17.7 l -82.18,-110.86" /><path
         id="path168"
         style="fill:#ffffff;fill-opacity:1;fill-rule:nonzero;stroke:none"
         d="m 7152.53,6488.75 c -14.72,-1.63 -29.52,1.57 -43.83,5.34 -141.95,37.42 -266.56,136.3 -335.26,266.04 247.64,-83.67 517.99,-42.5 775.8,0.57 -92.12,-112.31 -221.31,-187.07 -349.96,-254.5 -14.83,-7.78 -30.12,-15.62 -46.75,-17.45" /><path
         id="path170"
         style="fill:#4f2c19;fill-opacity:1;fill-rule:nonzero;stroke:none"
         d="m 7216.2,7129.13 c -3.89,25.12 -7.79,50.25 -11.69,75.37 8.45,-2.57 11.99,-12.35 14.33,-20.86 16.68,-60.48 32.97,-121.08 48.87,-181.78 2.85,-10.85 5.7,-22.01 4.45,-33.16 -2.76,-24.6 -24.31,-42.51 -45.57,-55.2 -31.91,-19.06 -67.05,-32.72 -103.46,-40.21 24.3,21.8 48.6,43.6 72.9,65.39 6.48,5.81 13.03,11.71 17.86,18.95 8.11,12.16 10.72,27.13 11.96,41.69 3.71,43.34 -2.98,86.82 -9.65,129.81" /></g></g></svg>